<svg version="1.1" id="Layer_1" xmlns="http://www.w3.org/2000/svg" xmlns:xlink="http://www.w3.org/1999/xlink" x="0px" y="0px"
	 width="100%" viewBox="0 0 500 500" enable-background="new 0 0 500 500" xml:space="preserve">
<path fill="#000000" opacity="1.000000" stroke="none" 
	d="
M297.000000,501.000000 
	C198.000031,501.000000 99.500046,501.000000 1.000053,501.000000 
	C1.000035,334.333405 1.000035,167.666794 1.000018,1.000142 
	C167.666565,1.000095 334.333130,1.000095 500.999756,1.000047 
	C500.999847,167.666519 500.999847,334.333038 500.999939,500.999786 
	C433.166656,501.000000 365.333344,501.000000 297.000000,501.000000 
M317.786255,103.269920 
	C317.133362,103.182785 316.480469,103.019432 315.827576,103.019318 
	C222.735962,103.003708 129.644348,102.996483 36.552757,103.037506 
	C35.451206,103.037987 34.349937,103.668297 33.175373,104.898911 
	C34.456242,112.383369 34.112385,120.665459 37.321918,127.203072 
	C47.038933,146.995972 63.979404,157.707550 85.921906,157.826843 
	C162.351639,158.242371 238.785187,157.943436 315.217255,157.975296 
	C317.813385,157.976379 320.411926,158.591660 323.004791,158.953293 
	C340.486938,161.391571 355.966339,168.483368 368.372528,180.897034 
	C376.292023,188.821274 382.723572,198.232590 390.036865,207.827759 
	C390.994812,208.215729 391.951508,208.938538 392.910858,208.942032 
	C410.711792,209.006744 428.513092,208.999496 446.314056,208.938141 
	C447.120544,208.935349 447.924774,208.280533 448.572205,207.238586 
	C447.000061,202.660721 445.918030,197.837143 443.768219,193.548889 
	C435.792908,177.640747 427.217865,162.216934 414.225403,149.482880 
	C407.210571,142.607605 400.107910,136.184219 392.239868,130.240097 
	C381.998901,122.503296 370.787018,116.272995 359.084869,112.558655 
	C346.007202,108.407730 332.411102,103.916161 318.001678,104.540428 
	C318.001678,104.540428 317.796631,104.172356 317.786255,103.269920 
M74.984558,212.905151 
	C75.962029,225.655594 81.084641,237.138687 90.304436,245.272018 
	C102.270111,255.827606 117.171837,260.663177 133.752563,258.821503 
	C133.890701,260.276733 134.027863,261.068817 134.031982,261.861603 
	C134.112732,277.410889 137.006195,292.514740 141.724686,307.244629 
	C147.152481,324.188782 156.090164,339.125427 166.955444,353.293762 
	C176.678574,365.972687 188.117996,376.605988 200.793488,385.823364 
	C210.868484,393.149750 221.824234,399.256592 233.809845,403.539337 
	C244.403030,407.324554 254.709869,412.085052 266.025024,412.898071 
	C277.808319,413.744720 289.668732,413.455658 301.474915,414.062317 
	C317.878113,414.905182 333.690399,412.321381 348.671844,405.791382 
	C360.487396,400.641296 372.335876,395.311188 383.379120,388.733673 
	C390.875031,384.269012 396.991211,377.493561 403.745026,371.775879 
	C415.936798,361.454498 425.161896,348.696991 433.235260,335.114288 
	C437.258087,328.346191 441.376953,321.339844 443.648224,313.891113 
	C447.639282,300.802399 450.655457,287.371124 453.274017,273.926331 
	C454.829010,265.942474 454.842804,257.658508 455.557770,249.414764 
	C413.376038,249.414764 372.338959,249.414764 331.384521,249.414764 
	C331.384521,265.073547 331.384521,280.324677 331.384521,295.878235 
	C352.193512,295.878235 372.650513,295.878235 393.672913,295.878235 
	C387.274261,311.363861 377.601074,323.976837 365.599915,334.545135 
	C357.020264,342.100403 347.658264,348.981995 336.738922,353.131409 
	C331.287506,355.202942 325.893188,357.809296 320.229462,358.857452 
	C308.481415,361.031555 296.668915,361.974976 284.545074,361.349640 
	C268.361694,360.514893 254.014648,354.679871 240.190842,347.508545 
	C224.500809,339.369049 212.261627,327.013153 202.978226,311.901978 
	C199.931122,306.942017 196.268356,302.098511 194.496948,296.675873 
	C191.584793,287.761108 190.251419,278.344727 187.768890,269.272125 
	C184.287277,256.548370 186.727585,244.095688 188.961334,231.648590 
	C190.257935,224.423492 192.282181,217.328995 194.748352,209.795090 
	C193.482529,209.198807 192.219330,208.089203 190.950500,208.082718 
	C169.687836,207.973953 148.424469,208.002426 127.161263,208.001465 
	C109.564240,208.000671 91.967224,208.001282 73.697075,208.001282 
	C74.197456,209.613510 74.579582,210.844742 74.984558,212.905151 
z"/>
<path fill="#49B682" opacity="1.000000" stroke="none" 
	d="
M193.978989,210.175720 
	C192.282181,217.328995 190.257935,224.423492 188.961334,231.648590 
	C186.727585,244.095688 184.287277,256.548370 187.768890,269.272125 
	C190.251419,278.344727 191.584793,287.761108 194.496948,296.675873 
	C196.268356,302.098511 199.931122,306.942017 202.978226,311.901978 
	C212.261627,327.013153 224.500809,339.369049 240.190842,347.508545 
	C254.014648,354.679871 268.361694,360.514893 284.545074,361.349640 
	C296.668915,361.974976 308.481415,361.031555 320.229462,358.857452 
	C325.893188,357.809296 331.287506,355.202942 336.738922,353.131409 
	C347.658264,348.981995 357.020264,342.100403 365.599915,334.545135 
	C377.601074,323.976837 387.274261,311.363861 393.672913,295.878235 
	C372.650513,295.878235 352.193512,295.878235 331.384521,295.878235 
	C331.384521,280.324677 331.384521,265.073547 331.384521,249.414764 
	C372.338959,249.414764 413.376038,249.414764 455.557770,249.414764 
	C454.842804,257.658508 454.829010,265.942474 453.274017,273.926331 
	C450.655457,287.371124 447.639282,300.802399 443.648224,313.891113 
	C441.376953,321.339844 437.258087,328.346191 433.235260,335.114288 
	C425.161896,348.696991 415.936798,361.454498 403.745026,371.775879 
	C396.991211,377.493561 390.875031,384.269012 383.379120,388.733673 
	C372.335876,395.311188 360.487396,400.641296 348.671844,405.791382 
	C333.690399,412.321381 317.878113,414.905182 301.474915,414.062317 
	C289.668732,413.455658 277.808319,413.744720 266.025024,412.898071 
	C254.709869,412.085052 244.403030,407.324554 233.809845,403.539337 
	C221.824234,399.256592 210.868484,393.149750 200.793488,385.823364 
	C188.117996,376.605988 176.678574,365.972687 166.955444,353.293762 
	C156.090164,339.125427 147.152481,324.188782 141.724686,307.244629 
	C137.006195,292.514740 134.112732,277.410889 134.031982,261.861603 
	C134.027863,261.068817 133.890701,260.276733 133.752563,258.821503 
	C117.171837,260.663177 102.270111,255.827606 90.304436,245.272018 
	C81.084641,237.138687 75.962029,225.655594 74.998756,212.162766 
	C75.035072,210.982834 75.057182,210.545303 75.542191,210.085663 
	C115.330742,210.025818 154.656403,209.988052 194.037506,210.007416 
	C194.092957,210.064545 193.978989,210.175720 193.978989,210.175720 
z"/>
<path fill="#48B682" opacity="1.000000" stroke="none" 
	d="
M389.822266,206.977173 
	C382.723572,198.232590 376.292023,188.821274 368.372528,180.897034 
	C355.966339,168.483368 340.486938,161.391571 323.004791,158.953293 
	C320.411926,158.591660 317.813385,157.976379 315.217255,157.975296 
	C238.785187,157.943436 162.351639,158.242371 85.921906,157.826843 
	C63.979404,157.707550 47.038933,146.995972 37.321918,127.203072 
	C34.112385,120.665459 34.456242,112.383369 33.494884,104.409286 
	C34.190456,103.977829 34.566517,104.035988 35.322224,104.270477 
	C37.180737,104.631226 38.659588,104.976906 40.138474,104.977028 
	C132.796860,104.984863 225.455261,104.964508 318.113647,104.946739 
	C332.411102,103.916161 346.007202,108.407730 359.084869,112.558655 
	C370.787018,116.272995 381.998901,122.503296 392.239868,130.240097 
	C400.107910,136.184219 407.210571,142.607605 414.225403,149.482880 
	C427.217865,162.216934 435.792908,177.640747 443.768219,193.548889 
	C445.918030,197.837143 447.000061,202.660721 448.200928,207.615555 
	C430.935120,207.993668 414.040375,208.035599 397.146240,207.950577 
	C394.703369,207.938293 392.263519,207.316757 389.822266,206.977173 
z"/>
<path fill="#CDFFE0" opacity="1.000000" stroke="none" 
	d="
M34.942577,104.094147 
	C34.566517,104.035988 34.190456,103.977829 33.531467,103.962128 
	C34.349937,103.668297 35.451206,103.037987 36.552757,103.037506 
	C129.644348,102.996483 222.735962,103.003708 315.827576,103.019318 
	C316.480469,103.019432 317.133362,103.182785 317.342224,103.666451 
	C287.236389,104.046638 257.574615,104.011353 227.912857,104.017853 
	C163.589432,104.031952 99.266006,104.067413 34.942577,104.094147 
z"/>
<path fill="#41956E" opacity="1.000000" stroke="none" 
	d="
M35.322224,104.270477 
	C99.266006,104.067413 163.589432,104.031952 227.912857,104.017853 
	C257.574615,104.011353 287.236389,104.046638 317.347412,104.117668 
	C317.796631,104.172356 318.001678,104.540428 318.057678,104.743584 
	C225.455261,104.964508 132.796860,104.984863 40.138474,104.977028 
	C38.659588,104.976906 37.180737,104.631226 35.322224,104.270477 
z"/>
<path fill="#B0DEC9" opacity="1.000000" stroke="none" 
	d="
M75.079300,210.107758 
	C75.057182,210.545303 75.035072,210.982834 74.987335,211.748169 
	C74.579582,210.844742 74.197456,209.613510 73.697075,208.001282 
	C91.967224,208.001282 109.564240,208.000671 127.161263,208.001465 
	C148.424469,208.002426 169.687836,207.973953 190.950500,208.082718 
	C192.219330,208.089203 193.482529,209.198807 194.363678,209.985413 
	C193.978989,210.175720 194.092957,210.064545 193.725983,209.725891 
	C192.543076,209.259689 191.727158,209.020950 190.911163,209.020584 
	C153.477615,209.003418 116.044060,208.997040 78.610596,209.054474 
	C77.432961,209.056290 76.256378,209.741272 75.079300,210.107758 
z"/>
<path fill="#6BBA93" opacity="1.000000" stroke="none" 
	d="
M389.929565,207.402466 
	C392.263519,207.316757 394.703369,207.938293 397.146240,207.950577 
	C414.040375,208.035599 430.935120,207.993668 448.279877,207.960968 
	C447.924774,208.280533 447.120544,208.935349 446.314056,208.938141 
	C428.513092,208.999496 410.711792,209.006744 392.910858,208.942032 
	C391.951508,208.938538 390.994812,208.215729 389.929565,207.402466 
z"/>
<path fill="#47A277" opacity="1.000000" stroke="none" 
	d="
M75.542191,210.085663 
	C76.256378,209.741272 77.432961,209.056290 78.610596,209.054474 
	C116.044060,208.997040 153.477615,209.003418 190.911163,209.020584 
	C191.727158,209.020950 192.543076,209.259689 193.670547,209.668747 
	C154.656403,209.988052 115.330742,210.025818 75.542191,210.085663 
z"/>
</svg>